<?xml version="1.0" encoding="UTF-8" standalone="no"?>
<svg
   xmlns:dc="http://purl.org/dc/elements/1.1/"
   xmlns:cc="http://creativecommons.org/ns#"
   xmlns:rdf="http://www.w3.org/1999/02/22-rdf-syntax-ns#"
   xmlns:svg="http://www.w3.org/2000/svg"
   xmlns="http://www.w3.org/2000/svg"
   xmlns:sodipodi="http://sodipodi.sourceforge.net/DTD/sodipodi-0.dtd"
   xmlns:inkscape="http://www.inkscape.org/namespaces/inkscape"
   version="1.1"
   viewBox="0.0 0.0 960.0 720.0"
   fill="none"
   stroke="none"
   stroke-linecap="square"
   stroke-miterlimit="10"
   clip-path="url(#clip0)"
   id="svg2"
   inkscape:version="0.48.1 r9760"
   width="100%"
   height="100%"
   sodipodi:docname="CopiadiStencil.svg">
  <metadata
     id="metadata255">
    <rdf:RDF>
      <cc:Work
         rdf:about="">
        <dc:format>image/svg+xml</dc:format>
        <dc:type
           rdf:resource="http://purl.org/dc/dcmitype/StillImage" />
        <dc:title></dc:title>
      </cc:Work>
    </rdf:RDF>
  </metadata>
  <defs
     id="defs253">
    <filter
       id="filter3392"
       inkscape:label="Drop shadow"
       width="1.5"
       height="1.5"
       x="-.25"
       y="-.25">
      <feGaussianBlur
         id="feGaussianBlur3394"
         in="SourceAlpha"
         stdDeviation="2"
         result="blur" />
      <feColorMatrix
         id="feColorMatrix3396"
         result="bluralpha"
         type="matrix"
         values="1 0 0 0 0 0 1 0 0 0 0 0 1 0 0 0 0 0 0.5 0 " />
      <feOffset
         id="feOffset3398"
         in="bluralpha"
         dx="4"
         dy="4"
         result="offsetBlur" />
      <feMerge
         id="feMerge3400">
        <feMergeNode
           id="feMergeNode3402"
           in="offsetBlur" />
        <feMergeNode
           id="feMergeNode3404"
           in="SourceGraphic" />
      </feMerge>
    </filter>
    <filter
       id="filter3406"
       inkscape:label="Drop shadow"
       width="1.5"
       height="1.5"
       x="-.25"
       y="-.25">
      <feGaussianBlur
         id="feGaussianBlur3408"
         in="SourceAlpha"
         stdDeviation="2"
         result="blur" />
      <feColorMatrix
         id="feColorMatrix3410"
         result="bluralpha"
         type="matrix"
         values="1 0 0 0 0 0 1 0 0 0 0 0 1 0 0 0 0 0 0.5 0 " />
      <feOffset
         id="feOffset3412"
         in="bluralpha"
         dx="4"
         dy="4"
         result="offsetBlur" />
      <feMerge
         id="feMerge3414">
        <feMergeNode
           id="feMergeNode3416"
           in="offsetBlur" />
        <feMergeNode
           id="feMergeNode3418"
           in="SourceGraphic" />
      </feMerge>
    </filter>
    <filter
       id="filter3420"
       inkscape:label="Drop shadow"
       width="1.5"
       height="1.5"
       x="-.25"
       y="-.25">
      <feGaussianBlur
         id="feGaussianBlur3422"
         in="SourceAlpha"
         stdDeviation="2"
         result="blur" />
      <feColorMatrix
         id="feColorMatrix3424"
         result="bluralpha"
         type="matrix"
         values="1 0 0 0 0 0 1 0 0 0 0 0 1 0 0 0 0 0 0.5 0 " />
      <feOffset
         id="feOffset3426"
         in="bluralpha"
         dx="4"
         dy="4"
         result="offsetBlur" />
      <feMerge
         id="feMerge3428">
        <feMergeNode
           id="feMergeNode3430"
           in="offsetBlur" />
        <feMergeNode
           id="feMergeNode3432"
           in="SourceGraphic" />
      </feMerge>
    </filter>
  </defs>
  <sodipodi:namedview
     pagecolor="#ffffff"
     bordercolor="#666666"
     borderopacity="1"
     objecttolerance="10"
     gridtolerance="10"
     guidetolerance="10"
     inkscape:pageopacity="0"
     inkscape:pageshadow="2"
     inkscape:window-width="640"
     inkscape:window-height="480"
     id="namedview251"
     showgrid="false"
     inkscape:zoom="0.39861111"
     inkscape:cx="480"
     inkscape:cy="521.62858"
     inkscape:window-x="0"
     inkscape:window-y="26"
     inkscape:window-maximized="0"
     inkscape:current-layer="svg2" />
  <clipPath
     id="clip0">
    <path
       d="M0 0L960.0 0L960.0 720.0L0 720.0L0 0Z"
       clip-rule="nonzero"
       id="path5" />
  </clipPath>
  <g
     id="g3360"
     style="filter:url(#filter3406)"
     inkscape:export-filename="/home/nopper/skippy/doc/imgs/row-part.png"
     inkscape:export-xdpi="90"
     inkscape:export-ydpi="90">
    <path
       id="path7"
       stroke-linecap="butt"
       stroke-linejoin="round"
       stroke-width="2.0"
       stroke="#073763"
       fill="#f4cccc"
       fill-rule="nonzero"
       d="M16.086418 32.16739L59.173035 32.16739L59.173035 75.254005L16.086418 75.254005Z" />
    <path
       id="path9"
       stroke-linecap="butt"
       stroke-linejoin="round"
       stroke-width="2.0"
       stroke="#073763"
       fill="#f4cccc"
       fill-rule="nonzero"
       d="M64.08642 32.16739L107.173035 32.16739L107.173035 75.254005L64.08642 75.254005Z" />
    <path
       id="path11"
       stroke-linecap="butt"
       stroke-linejoin="round"
       stroke-width="2.0"
       stroke="#073763"
       fill="#d9ead3"
       fill-rule="nonzero"
       d="M16.086418 80.16739L59.173035 80.16739L59.173035 123.254005L16.086418 123.254005Z" />
    <path
       id="path13"
       stroke-linecap="butt"
       stroke-linejoin="round"
       stroke-width="2.0"
       stroke="#073763"
       fill="#d9ead3"
       fill-rule="nonzero"
       d="M64.08642 80.16739L107.173035 80.16739L107.173035 123.254005L64.08642 123.254005Z" />
    <path
       id="path15"
       stroke-linecap="butt"
       stroke-linejoin="round"
       stroke-width="2.0"
       stroke="#073763"
       fill="#f4cccc"
       fill-rule="nonzero"
       d="M112.08642 32.16739L155.17303 32.16739L155.17303 75.254005L112.08642 75.254005Z" />
    <path
       id="path17"
       stroke-linecap="butt"
       stroke-linejoin="round"
       stroke-width="2.0"
       stroke="#073763"
       fill="#f4cccc"
       fill-rule="nonzero"
       d="M160.08643 32.16739L203.17303 32.16739L203.17303 75.254005L160.08643 75.254005Z" />
    <path
       id="path19"
       stroke-linecap="butt"
       stroke-linejoin="round"
       stroke-width="2.0"
       stroke="#073763"
       fill="#d9ead3"
       fill-rule="nonzero"
       d="M112.08642 80.16739L155.17303 80.16739L155.17303 123.254005L112.08642 123.254005Z" />
    <path
       id="path21"
       stroke-linecap="butt"
       stroke-linejoin="round"
       stroke-width="2.0"
       stroke="#073763"
       fill="#d9ead3"
       fill-rule="nonzero"
       d="M160.08643 80.16739L203.17303 80.16739L203.17303 123.254005L160.08643 123.254005Z" />
    <path
       id="path23"
       stroke-linecap="butt"
       stroke-linejoin="round"
       stroke-width="2.0"
       stroke="#073763"
       fill="#fff2cc"
       fill-rule="nonzero"
       d="M16.086418 128.16739L59.173035 128.16739L59.173035 171.25401L16.086418 171.25401Z" />
    <path
       id="path25"
       stroke-linecap="butt"
       stroke-linejoin="round"
       stroke-width="2.0"
       stroke="#073763"
       fill="#fff2cc"
       fill-rule="nonzero"
       d="M64.08642 128.16739L107.173035 128.16739L107.173035 171.25401L64.08642 171.25401Z" />
    <path
       id="path27"
       stroke-linecap="butt"
       stroke-linejoin="round"
       stroke-width="2.0"
       stroke="#073763"
       fill="#cfe2f3"
       fill-rule="nonzero"
       d="M16.086418 176.16739L59.173035 176.16739L59.173035 219.254L16.086418 219.254Z" />
    <path
       id="path29"
       stroke-linecap="butt"
       stroke-linejoin="round"
       stroke-width="2.0"
       stroke="#073763"
       fill="#cfe2f3"
       fill-rule="nonzero"
       d="M64.08642 176.16739L107.173035 176.16739L107.173035 219.254L64.08642 219.254Z" />
    <path
       id="path31"
       stroke-linecap="butt"
       stroke-linejoin="round"
       stroke-width="2.0"
       stroke="#073763"
       fill="#fff2cc"
       fill-rule="nonzero"
       d="M112.08642 128.16739L155.17303 128.16739L155.17303 171.25401L112.08642 171.25401Z" />
    <path
       id="path33"
       stroke-linecap="butt"
       stroke-linejoin="round"
       stroke-width="2.0"
       stroke="#073763"
       fill="#fff2cc"
       fill-rule="nonzero"
       d="M160.08643 128.16739L203.17303 128.16739L203.17303 171.25401L160.08643 171.25401Z" />
    <path
       id="path35"
       stroke-linecap="butt"
       stroke-linejoin="round"
       stroke-width="2.0"
       stroke="#073763"
       fill="#cfe2f3"
       fill-rule="nonzero"
       d="M112.08642 176.16739L155.17303 176.16739L155.17303 219.254L112.08642 219.254Z" />
    <path
       id="path37"
       stroke-linecap="butt"
       stroke-linejoin="round"
       stroke-width="2.0"
       stroke="#073763"
       fill="#cfe2f3"
       fill-rule="nonzero"
       d="M160.08643 176.16739L203.17303 176.16739L203.17303 219.254L160.08643 219.254Z" />
    <path
       id="path39"
       stroke-linecap="butt"
       stroke-linejoin="round"
       stroke-width="2.0"
       stroke="#073763"
       fill="#f4cccc"
       fill-rule="nonzero"
       d="M271.78735 32.614418L458.433 32.614418L458.433 75.701035L271.78735 75.701035Z" />
    <path
       id="path41"
       fill="#000000"
       fill-rule="nonzero"
       d="M331.11548 60.645668L327.5061 47.051918L329.34985 47.051918L331.41235 55.958168Q331.7561 57.364418 331.99048 58.739418Q332.5061 56.567543 332.59985 56.223793L335.1936 47.051918L337.36548 47.051918L339.3186 53.926918Q340.05298 56.489418 340.36548 58.739418Q340.6311 57.458168 341.05298 55.786293L343.17798 47.051918L344.99048 47.051918L341.2561 60.645668L339.52173 60.645668L336.66235 50.286293Q336.30298 48.989418 336.24048 48.692543Q336.02173 49.630043 335.83423 50.286293L332.9436 60.645668L331.11548 60.645668ZM345.5061 55.723793Q345.5061 52.989418 347.03735 51.661293Q348.30298 50.567543 350.1311 50.567543Q352.16235 50.567543 353.45142 51.90348Q354.74048 53.239418 354.74048 55.583168Q354.74048 57.489418 354.17017 58.575356Q353.59985 59.661293 352.51392 60.262856Q351.42798 60.864418 350.1311 60.864418Q348.0686 60.864418 346.78735 59.536293Q345.5061 58.208168 345.5061 55.723793ZM347.22485 55.723793Q347.22485 57.614418 348.05298 58.551918Q348.8811 59.489418 350.1311 59.489418Q351.3811 59.489418 352.20142 58.544106Q353.02173 57.598793 353.02173 55.661293Q353.02173 53.833168 352.1936 52.895668Q351.36548 51.958168 350.1311 51.958168Q348.8811 51.958168 348.05298 52.895668Q347.22485 53.833168 347.22485 55.723793ZM356.49048 60.645668L356.49048 50.786293L357.99048 50.786293L357.99048 52.286293Q358.5686 51.239418 359.05298 50.90348Q359.53735 50.567543 360.1311 50.567543Q360.97485 50.567543 361.84985 51.114418L361.27173 52.661293Q360.66235 52.301918 360.03735 52.301918Q359.49048 52.301918 359.0608 52.630043Q358.6311 52.958168 358.4436 53.536293Q358.16235 54.426918 358.16235 55.489418L358.16235 60.645668L356.49048 60.645668ZM362.72485 60.645668L362.72485 47.051918L364.39673 47.051918L364.39673 54.801918L368.34985 50.786293L370.5061 50.786293L366.74048 54.442543L370.8811 60.645668L368.8186 60.645668L365.5686 55.614418L364.39673 56.739418L364.39673 60.645668L362.72485 60.645668ZM378.78735 57.473793L380.5061 57.692543Q380.09985 59.192543 378.9983 60.02848Q377.89673 60.864418 376.17798 60.864418Q374.02173 60.864418 372.7561 59.536293Q371.49048 58.208168 371.49048 55.801918Q371.49048 53.317543 372.76392 51.942543Q374.03735 50.567543 376.08423 50.567543Q378.0686 50.567543 379.3186 51.911293Q380.5686 53.255043 380.5686 55.708168Q380.5686 55.848793 380.55298 56.145668L373.20923 56.145668Q373.30298 57.770668 374.1311 58.630043Q374.95923 59.489418 376.1936 59.489418Q377.09985 59.489418 377.7483 59.012856Q378.39673 58.536293 378.78735 57.473793ZM373.30298 54.770668L378.80298 54.770668Q378.6936 53.536293 378.17798 52.911293Q377.3811 51.942543 376.09985 51.942543Q374.95923 51.942543 374.17017 52.71598Q373.3811 53.489418 373.30298 54.770668ZM382.39673 60.645668L382.39673 50.786293L383.89673 50.786293L383.89673 52.286293Q384.47485 51.239418 384.95923 50.90348Q385.4436 50.567543 386.03735 50.567543Q386.8811 50.567543 387.7561 51.114418L387.17798 52.661293Q386.5686 52.301918 385.9436 52.301918Q385.39673 52.301918 384.96704 52.630043Q384.53735 52.958168 384.34985 53.536293Q384.0686 54.426918 384.0686 55.489418L384.0686 60.645668L382.39673 60.645668ZM399.64673 60.645668L397.97485 60.645668L397.97485 50.005043Q397.3811 50.583168 396.39673 51.15348Q395.41235 51.723793 394.6311 52.020668L394.6311 50.395668Q396.03735 49.739418 397.08423 48.801918Q398.1311 47.864418 398.5686 46.989418L399.64673 46.989418L399.64673 60.645668Z" />
    <path
       id="path43"
       stroke-linecap="butt"
       stroke-linejoin="round"
       stroke-width="2.0"
       stroke="#073763"
       fill="#d9ead3"
       fill-rule="nonzero"
       d="M272.1612 80.390114L458.80685 80.390114L458.80685 123.47673L272.1612 123.47673Z" />
    <path
       id="path45"
       fill="#000000"
       fill-rule="nonzero"
       d="M331.48932 108.421364L327.87994 94.827614L329.7237 94.827614L331.7862 103.733864Q332.12994 105.140114 332.36432 106.515114Q332.87994 104.34324 332.9737 103.99949L335.56744 94.827614L337.73932 94.827614L339.69244 101.702614Q340.42682 104.265114 340.73932 106.515114Q341.00494 105.233864 341.42682 103.56199L343.55182 94.827614L345.36432 94.827614L341.62994 108.421364L339.89557 108.421364L337.0362 98.06199Q336.67682 96.765114 336.61432 96.46824Q336.39557 97.40574 336.20807 98.06199L333.31744 108.421364L331.48932 108.421364ZM345.87994 103.49949Q345.87994 100.765114 347.4112 99.43699Q348.67682 98.34324 350.50494 98.34324Q352.5362 98.34324 353.82526 99.67918Q355.11432 101.015114 355.11432 103.358864Q355.11432 105.265114 354.544 106.35105Q353.9737 107.43699 352.88776 108.03855Q351.80182 108.640114 350.50494 108.640114Q348.44244 108.640114 347.1612 107.31199Q345.87994 105.983864 345.87994 103.49949ZM347.5987 103.49949Q347.5987 105.390114 348.42682 106.327614Q349.25494 107.265114 350.50494 107.265114Q351.75494 107.265114 352.57526 106.3198Q353.39557 105.37449 353.39557 103.43699Q353.39557 101.608864 352.56744 100.671364Q351.73932 99.733864 350.50494 99.733864Q349.25494 99.733864 348.42682 100.671364Q347.5987 101.608864 347.5987 103.49949ZM356.86432 108.421364L356.86432 98.56199L358.36432 98.56199L358.36432 100.06199Q358.94244 99.015114 359.42682 98.67918Q359.9112 98.34324 360.50494 98.34324Q361.3487 98.34324 362.2237 98.890114L361.64557 100.43699Q361.0362 100.077614 360.4112 100.077614Q359.86432 100.077614 359.43463 100.40574Q359.00494 100.733864 358.81744 101.31199Q358.5362 102.202614 358.5362 103.265114L358.5362 108.421364L356.86432 108.421364ZM363.0987 108.421364L363.0987 94.827614L364.77057 94.827614L364.77057 102.577614L368.7237 98.56199L370.87994 98.56199L367.11432 102.21824L371.25494 108.421364L369.19244 108.421364L365.94244 103.390114L364.77057 104.515114L364.77057 108.421364L363.0987 108.421364ZM379.1612 105.24949L380.87994 105.46824Q380.4737 106.96824 379.37213 107.80418Q378.27057 108.640114 376.55182 108.640114Q374.39557 108.640114 373.12994 107.31199Q371.86432 105.983864 371.86432 103.577614Q371.86432 101.09324 373.13776 99.71824Q374.4112 98.34324 376.45807 98.34324Q378.44244 98.34324 379.69244 99.68699Q380.94244 101.03074 380.94244 103.483864Q380.94244 103.62449 380.92682 103.921364L373.58307 103.921364Q373.67682 105.546364 374.50494 106.40574Q375.33307 107.265114 376.56744 107.265114Q377.4737 107.265114 378.12213 106.78855Q378.77057 106.31199 379.1612 105.24949ZM373.67682 102.546364L379.17682 102.546364Q379.06744 101.31199 378.55182 100.68699Q377.75494 99.71824 376.4737 99.71824Q375.33307 99.71824 374.544 100.49168Q373.75494 101.265114 373.67682 102.546364ZM382.77057 108.421364L382.77057 98.56199L384.27057 98.56199L384.27057 100.06199Q384.8487 99.015114 385.33307 98.67918Q385.81744 98.34324 386.4112 98.34324Q387.25494 98.34324 388.12994 98.890114L387.55182 100.43699Q386.94244 100.077614 386.31744 100.077614Q385.77057 100.077614 385.34088 100.40574Q384.9112 100.733864 384.7237 101.31199Q384.44244 102.202614 384.44244 103.265114L384.44244 108.421364L382.77057 108.421364ZM402.50494 106.81199L402.50494 108.421364L393.52057 108.421364Q393.50494 107.81199 393.70807 107.265114Q394.05182 106.34324 394.80963 105.452614Q395.56744 104.56199 396.98932 103.390114Q399.20807 101.577614 399.98932 100.515114Q400.77057 99.452614 400.77057 98.49949Q400.77057 97.515114 400.05963 96.827614Q399.3487 96.140114 398.20807 96.140114Q397.00494 96.140114 396.27838 96.86668Q395.55182 97.59324 395.55182 98.87449L393.83307 98.702614Q394.00494 96.78074 395.1612 95.77293Q396.31744 94.765114 398.25494 94.765114Q400.20807 94.765114 401.3487 95.85105Q402.48932 96.93699 402.48932 98.546364Q402.48932 99.358864 402.15338 100.14793Q401.81744 100.93699 401.044 101.80418Q400.27057 102.671364 398.4737 104.202614Q396.9737 105.46824 396.544 105.91355Q396.11432 106.358864 395.83307 106.81199L402.50494 106.81199Z" />
    <path
       id="path47"
       stroke-linecap="butt"
       stroke-linejoin="round"
       stroke-width="2.0"
       stroke="#073763"
       fill="#fff2cc"
       fill-rule="nonzero"
       d="M271.33875 128.68918L457.9844 128.68918L457.9844 171.7758L271.33875 171.7758Z" />
    <path
       id="path49"
       fill="#000000"
       fill-rule="nonzero"
       d="M330.66687 156.72043L327.0575 143.12668L328.90125 143.12668L330.96375 152.03293Q331.3075 153.43918 331.54187 154.81418Q332.0575 152.6423 332.15125 152.29855L334.745 143.12668L336.91687 143.12668L338.87 150.00168Q339.60437 152.56418 339.91687 154.81418Q340.1825 153.53293 340.60437 151.86105L342.72937 143.12668L344.54187 143.12668L340.8075 156.72043L339.07312 156.72043L336.21375 146.36105Q335.85437 145.06418 335.79187 144.7673Q335.57312 145.7048 335.38562 146.36105L332.495 156.72043L330.66687 156.72043ZM345.0575 151.79855Q345.0575 149.06418 346.58875 147.73605Q347.85437 146.6423 349.6825 146.6423Q351.71375 146.6423 353.0028 147.97824Q354.29187 149.31418 354.29187 151.65793Q354.29187 153.56418 353.72156 154.65012Q353.15125 155.73605 352.0653 156.33762Q350.97937 156.93918 349.6825 156.93918Q347.62 156.93918 346.33875 155.61105Q345.0575 154.28293 345.0575 151.79855ZM346.77625 151.79855Q346.77625 153.68918 347.60437 154.62668Q348.4325 155.56418 349.6825 155.56418Q350.9325 155.56418 351.7528 154.61887Q352.57312 153.67355 352.57312 151.73605Q352.57312 149.90793 351.745 148.97043Q350.91687 148.03293 349.6825 148.03293Q348.4325 148.03293 347.60437 148.97043Q346.77625 149.90793 346.77625 151.79855ZM356.04187 156.72043L356.04187 146.86105L357.54187 146.86105L357.54187 148.36105Q358.12 147.31418 358.60437 146.97824Q359.08875 146.6423 359.6825 146.6423Q360.52625 146.6423 361.40125 147.18918L360.82312 148.73605Q360.21375 148.37668 359.58875 148.37668Q359.04187 148.37668 358.61218 148.7048Q358.1825 149.03293 357.995 149.61105Q357.71375 150.50168 357.71375 151.56418L357.71375 156.72043L356.04187 156.72043ZM362.27625 156.72043L362.27625 143.12668L363.94812 143.12668L363.94812 150.87668L367.90125 146.86105L370.0575 146.86105L366.29187 150.5173L370.4325 156.72043L368.37 156.72043L365.12 151.68918L363.94812 152.81418L363.94812 156.72043L362.27625 156.72043ZM378.33875 153.54855L380.0575 153.7673Q379.65125 155.2673 378.54968 156.10324Q377.44812 156.93918 375.72937 156.93918Q373.57312 156.93918 372.3075 155.61105Q371.04187 154.28293 371.04187 151.87668Q371.04187 149.3923 372.3153 148.0173Q373.58875 146.6423 375.63562 146.6423Q377.62 146.6423 378.87 147.98605Q380.12 149.3298 380.12 151.78293Q380.12 151.92355 380.10437 152.22043L372.76062 152.22043Q372.85437 153.84543 373.6825 154.7048Q374.51062 155.56418 375.745 155.56418Q376.65125 155.56418 377.29968 155.08762Q377.94812 154.61105 378.33875 153.54855ZM372.85437 150.84543L378.35437 150.84543Q378.245 149.61105 377.72937 148.98605Q376.9325 148.0173 375.65125 148.0173Q374.51062 148.0173 373.72156 148.79074Q372.9325 149.56418 372.85437 150.84543ZM381.94812 156.72043L381.94812 146.86105L383.44812 146.86105L383.44812 148.36105Q384.02625 147.31418 384.51062 146.97824Q384.995 146.6423 385.58875 146.6423Q386.4325 146.6423 387.3075 147.18918L386.72937 148.73605Q386.12 148.37668 385.495 148.37668Q384.94812 148.37668 384.51843 148.7048Q384.08875 149.03293 383.90125 149.61105Q383.62 150.50168 383.62 151.56418L383.62 156.72043L381.94812 156.72043ZM392.91687 153.12668L394.58875 152.90793Q394.87 154.3298 395.5653 154.9548Q396.26062 155.5798 397.245 155.5798Q398.4325 155.5798 399.245 154.75949Q400.0575 153.93918 400.0575 152.73605Q400.0575 151.59543 399.29968 150.84543Q398.54187 150.09543 397.38562 150.09543Q396.91687 150.09543 396.21375 150.28293L396.40125 148.81418Q396.5575 148.8298 396.66687 148.8298Q397.72937 148.8298 398.58093 148.27512Q399.4325 147.72043 399.4325 146.56418Q399.4325 145.6423 398.8153 145.04074Q398.19812 144.43918 397.21375 144.43918Q396.245 144.43918 395.59656 145.04855Q394.94812 145.65793 394.76062 146.8923L393.08875 146.59543Q393.38562 144.90793 394.47156 143.98605Q395.5575 143.06418 397.1825 143.06418Q398.29187 143.06418 399.22937 143.54074Q400.16687 144.0173 400.65906 144.84543Q401.15125 145.67355 401.15125 146.59543Q401.15125 147.48605 400.6825 148.2048Q400.21375 148.92355 399.27625 149.36105Q400.495 149.62668 401.15906 150.50949Q401.82312 151.3923 401.82312 152.7048Q401.82312 154.48605 400.52625 155.72043Q399.22937 156.9548 397.245 156.9548Q395.44812 156.9548 394.26843 155.8923Q393.08875 154.8298 392.91687 153.12668Z" />
    <path
       id="path51"
       stroke-linecap="butt"
       stroke-linejoin="round"
       stroke-width="2.0"
       stroke="#073763"
       fill="#d0e0e3"
       fill-rule="nonzero"
       d="M271.63782 176.98825L458.28348 176.98825L458.28348 220.07486L271.63782 220.07486Z" />
    <path
       id="path53"
       fill="#000000"
       fill-rule="nonzero"
       d="M330.96594 205.0195L327.35657 191.42575L329.20032 191.42575L331.26282 200.332Q331.60657 201.73825 331.84094 203.11325Q332.35657 200.94138 332.45032 200.59763L335.04407 191.42575L337.21594 191.42575L339.16907 198.30075Q339.90344 200.86325 340.21594 203.11325Q340.48157 201.832 340.90344 200.16013L343.02844 191.42575L344.84094 191.42575L341.10657 205.0195L339.3722 205.0195L336.51282 194.66013Q336.15344 193.36325 336.09094 193.06638Q335.8722 194.00388 335.6847 194.66013L332.79407 205.0195L330.96594 205.0195ZM345.35657 200.09763Q345.35657 197.36325 346.88782 196.03513Q348.15344 194.94138 349.98157 194.94138Q352.01282 194.94138 353.30188 196.27731Q354.59094 197.61325 354.59094 199.957Q354.59094 201.86325 354.02063 202.94919Q353.45032 204.03513 352.36438 204.63669Q351.27844 205.23825 349.98157 205.23825Q347.91907 205.23825 346.63782 203.91013Q345.35657 202.582 345.35657 200.09763ZM347.07532 200.09763Q347.07532 201.98825 347.90344 202.92575Q348.73157 203.86325 349.98157 203.86325Q351.23157 203.86325 352.05188 202.91794Q352.8722 201.97263 352.8722 200.03513Q352.8722 198.207 352.04407 197.2695Q351.21594 196.332 349.98157 196.332Q348.73157 196.332 347.90344 197.2695Q347.07532 198.207 347.07532 200.09763ZM356.34094 205.0195L356.34094 195.16013L357.84094 195.16013L357.84094 196.66013Q358.41907 195.61325 358.90344 195.27731Q359.38782 194.94138 359.98157 194.94138Q360.82532 194.94138 361.70032 195.48825L361.1222 197.03513Q360.51282 196.67575 359.88782 196.67575Q359.34094 196.67575 358.91125 197.00388Q358.48157 197.332 358.29407 197.91013Q358.01282 198.80075 358.01282 199.86325L358.01282 205.0195L356.34094 205.0195ZM362.57532 205.0195L362.57532 191.42575L364.2472 191.42575L364.2472 199.17575L368.20032 195.16013L370.35657 195.16013L366.59094 198.81638L370.73157 205.0195L368.66907 205.0195L365.41907 199.98825L364.2472 201.11325L364.2472 205.0195L362.57532 205.0195ZM378.63782 201.84763L380.35657 202.06638Q379.95032 203.56638 378.84875 204.40231Q377.7472 205.23825 376.02844 205.23825Q373.8722 205.23825 372.60657 203.91013Q371.34094 202.582 371.34094 200.17575Q371.34094 197.69138 372.61438 196.31638Q373.88782 194.94138 375.9347 194.94138Q377.91907 194.94138 379.16907 196.28513Q380.41907 197.62888 380.41907 200.082Q380.41907 200.22263 380.40344 200.5195L373.0597 200.5195Q373.15344 202.1445 373.98157 203.00388Q374.8097 203.86325 376.04407 203.86325Q376.95032 203.86325 377.59875 203.38669Q378.2472 202.91013 378.63782 201.84763ZM373.15344 199.1445L378.65344 199.1445Q378.54407 197.91013 378.02844 197.28513Q377.23157 196.31638 375.95032 196.31638Q374.8097 196.31638 374.02063 197.08981Q373.23157 197.86325 373.15344 199.1445ZM382.2472 205.0195L382.2472 195.16013L383.7472 195.16013L383.7472 196.66013Q384.32532 195.61325 384.8097 195.27731Q385.29407 194.94138 385.88782 194.94138Q386.73157 194.94138 387.60657 195.48825L387.02844 197.03513Q386.41907 196.67575 385.79407 196.67575Q385.2472 196.67575 384.8175 197.00388Q384.38782 197.332 384.20032 197.91013Q383.91907 198.80075 383.91907 199.86325L383.91907 205.0195L382.2472 205.0195ZM398.5597 205.0195L398.5597 201.7695L392.65344 201.7695L392.65344 200.23825L398.8722 191.42575L400.23157 191.42575L400.23157 200.23825L402.07532 200.23825L402.07532 201.7695L400.23157 201.7695L400.23157 205.0195L398.5597 205.0195ZM398.5597 200.23825L398.5597 194.09763L394.3097 200.23825L398.5597 200.23825Z" />
    <path
       id="path55"
       stroke-linecap="butt"
       stroke-linejoin="round"
       stroke-width="2.0"
       stroke="#073763"
       fill-rule="evenodd"
       d="M223.7757 128.59813L243.7757 128.59813" />
    <path
       id="path57"
       stroke-linecap="butt"
       stroke-width="2.0"
       stroke="#073763"
       fill="#073763"
       fill-rule="evenodd"
       d="M243.7757 131.9016L252.85188 128.59813L243.7757 125.29466Z" />
    <path
       id="path211"
       stroke-linecap="butt"
       stroke-linejoin="round"
       stroke-width="2.0"
       stroke="#073763"
       fill-rule="evenodd"
       d="M101.08399 54.157726L117.115486 54.157726" />
    <path
       id="path213"
       stroke-linecap="butt"
       stroke-width="2.0"
       stroke="#073763"
       fill="#073763"
       fill-rule="evenodd"
       d="M117.115486 57.461193L126.19168 54.157726L117.115486 50.854263Z" />
    <path
       id="path215"
       stroke-linecap="butt"
       stroke-linejoin="round"
       stroke-width="2.0"
       stroke="#073763"
       fill-rule="evenodd"
       d="M67.79797 54.832195L51.766476 54.832195" />
    <path
       id="path217"
       stroke-linecap="butt"
       stroke-width="2.0"
       stroke="#073763"
       fill="#073763"
       fill-rule="evenodd"
       d="M51.76648 51.528732L42.690285 54.832195L51.76648 58.13566Z" />
  </g>
  <g
     id="g3232"
     style="filter:url(#filter3392)"
     inkscape:export-filename="/home/nopper/skippy/doc/imgs/col-part.png"
     inkscape:export-xdpi="90"
     inkscape:export-ydpi="90">
    <path
       id="path59"
       stroke-linecap="butt"
       stroke-linejoin="round"
       stroke-width="2.0"
       stroke="#073763"
       fill="#f4cccc"
       fill-rule="nonzero"
       d="M691.4721 32.466454L691.4721 75.55307L648.3855 75.55307L648.3855 32.466454Z" />
    <path
       id="path61"
       stroke-linecap="butt"
       stroke-linejoin="round"
       stroke-width="2.0"
       stroke="#073763"
       fill="#f4cccc"
       fill-rule="nonzero"
       d="M691.4721 80.46645L691.4721 123.55307L648.3855 123.55307L648.3855 80.46645Z" />
    <path
       id="path63"
       stroke-linecap="butt"
       stroke-linejoin="round"
       stroke-width="2.0"
       stroke="#073763"
       fill="#d9ead3"
       fill-rule="nonzero"
       d="M643.4721 32.466454L643.4721 75.55307L600.3855 75.55307L600.3855 32.466454Z" />
    <path
       id="path65"
       stroke-linecap="butt"
       stroke-linejoin="round"
       stroke-width="2.0"
       stroke="#073763"
       fill="#d9ead3"
       fill-rule="nonzero"
       d="M643.4721 80.46645L643.4721 123.55307L600.3855 123.55307L600.3855 80.46645Z" />
    <path
       id="path67"
       stroke-linecap="butt"
       stroke-linejoin="round"
       stroke-width="2.0"
       stroke="#073763"
       fill="#f4cccc"
       fill-rule="nonzero"
       d="M691.4721 128.46645L691.4721 171.55307L648.3855 171.55307L648.3855 128.46645Z" />
    <path
       id="path69"
       stroke-linecap="butt"
       stroke-linejoin="round"
       stroke-width="2.0"
       stroke="#073763"
       fill="#f4cccc"
       fill-rule="nonzero"
       d="M691.4721 176.46645L691.4721 219.55307L648.3855 219.55307L648.3855 176.46645Z" />
    <path
       id="path71"
       stroke-linecap="butt"
       stroke-linejoin="round"
       stroke-width="2.0"
       stroke="#073763"
       fill="#d9ead3"
       fill-rule="nonzero"
       d="M643.4721 128.46645L643.4721 171.55307L600.3855 171.55307L600.3855 128.46645Z" />
    <path
       id="path73"
       stroke-linecap="butt"
       stroke-linejoin="round"
       stroke-width="2.0"
       stroke="#073763"
       fill="#d9ead3"
       fill-rule="nonzero"
       d="M643.4721 176.46645L643.4721 219.55307L600.3855 219.55307L600.3855 176.46645Z" />
    <path
       id="path75"
       stroke-linecap="butt"
       stroke-linejoin="round"
       stroke-width="2.0"
       stroke="#073763"
       fill="#fff2cc"
       fill-rule="nonzero"
       d="M595.4721 32.466454L595.4721 75.55307L552.3855 75.55307L552.3855 32.466454Z" />
    <path
       id="path77"
       stroke-linecap="butt"
       stroke-linejoin="round"
       stroke-width="2.0"
       stroke="#073763"
       fill="#fff2cc"
       fill-rule="nonzero"
       d="M595.4721 80.46645L595.4721 123.55307L552.3855 123.55307L552.3855 80.46645Z" />
    <path
       id="path79"
       stroke-linecap="butt"
       stroke-linejoin="round"
       stroke-width="2.0"
       stroke="#073763"
       fill="#cfe2f3"
       fill-rule="nonzero"
       d="M547.4721 32.466454L547.4721 75.55307L504.3855 75.55307L504.3855 32.466454Z" />
    <path
       id="path81"
       stroke-linecap="butt"
       stroke-linejoin="round"
       stroke-width="2.0"
       stroke="#073763"
       fill="#cfe2f3"
       fill-rule="nonzero"
       d="M547.4721 80.46645L547.4721 123.55307L504.3855 123.55307L504.3855 80.46645Z" />
    <path
       id="path83"
       stroke-linecap="butt"
       stroke-linejoin="round"
       stroke-width="2.0"
       stroke="#073763"
       fill="#fff2cc"
       fill-rule="nonzero"
       d="M595.4721 128.46645L595.4721 171.55307L552.3855 171.55307L552.3855 128.46645Z" />
    <path
       id="path85"
       stroke-linecap="butt"
       stroke-linejoin="round"
       stroke-width="2.0"
       stroke="#073763"
       fill="#fff2cc"
       fill-rule="nonzero"
       d="M595.4721 176.46645L595.4721 219.55307L552.3855 219.55307L552.3855 176.46645Z" />
    <path
       id="path87"
       stroke-linecap="butt"
       stroke-linejoin="round"
       stroke-width="2.0"
       stroke="#073763"
       fill="#cfe2f3"
       fill-rule="nonzero"
       d="M547.4721 128.46645L547.4721 171.55307L504.3855 171.55307L504.3855 128.46645Z" />
    <path
       id="path89"
       stroke-linecap="butt"
       stroke-linejoin="round"
       stroke-width="2.0"
       stroke="#073763"
       fill="#cfe2f3"
       fill-rule="nonzero"
       d="M547.4721 176.46645L547.4721 219.55307L504.3855 219.55307L504.3855 176.46645Z" />
    <path
       id="path91"
       stroke-linecap="butt"
       stroke-linejoin="round"
       stroke-width="2.0"
       stroke="#073763"
       fill="#f4cccc"
       fill-rule="nonzero"
       d="M947.1021 33.35827L947.1021 220.00394L904.0155 220.00394L904.0155 33.35827Z" />
    <path
       id="path93"
       fill="#000000"
       fill-rule="nonzero"
       d="M919.07086 92.68639L932.6646 89.07702L932.6646 90.92077L923.75836 92.98327Q922.3521 93.32702 920.9771 93.56139Q923.149 94.07702 923.49274 94.17077L932.6646 96.76452L932.6646 98.93639L925.7896 100.88952Q923.2271 101.62389 920.9771 101.93639Q922.25836 102.20202 923.93024 102.62389L932.6646 104.74889L932.6646 106.56139L919.07086 102.82702L919.07086 101.09264L929.43024 98.23327Q930.7271 97.87389 931.024 97.81139Q930.0865 97.59264 929.43024 97.40514L919.07086 94.51452L919.07086 92.68639ZM923.99274 107.07702Q926.7271 107.07702 928.05524 108.60827Q929.149 109.87389 929.149 111.70202Q929.149 113.73327 927.81305 115.02233Q926.4771 116.31139 924.13336 116.31139Q922.2271 116.31139 921.1412 115.74108Q920.05524 115.17077 919.4537 114.08483Q918.8521 112.99889 918.8521 111.70202Q918.8521 109.63952 920.18024 108.35827Q921.50836 107.07702 923.99274 107.07702ZM923.99274 108.79577Q922.1021 108.79577 921.1646 109.62389Q920.2271 110.45202 920.2271 111.70202Q920.2271 112.95202 921.1724 113.77233Q922.11774 114.59264 924.05524 114.59264Q925.88336 114.59264 926.82086 113.76452Q927.75836 112.93639 927.75836 111.70202Q927.75836 110.45202 926.82086 109.62389Q925.88336 108.79577 923.99274 108.79577ZM919.07086 118.06139L928.93024 118.06139L928.93024 119.56139L927.43024 119.56139Q928.4771 120.13952 928.81305 120.62389Q929.149 121.10827 929.149 121.70202Q929.149 122.54577 928.6021 123.42077L927.05524 122.84264Q927.4146 122.23327 927.4146 121.60827Q927.4146 121.06139 927.0865 120.63171Q926.75836 120.20202 926.18024 120.01452Q925.2896 119.73327 924.2271 119.73327L919.07086 119.73327L919.07086 118.06139ZM919.07086 124.29577L932.6646 124.29577L932.6646 125.96764L924.9146 125.96764L928.93024 129.92076L928.93024 132.07701L925.274 128.31139L919.07086 132.45201L919.07086 130.38951L924.1021 127.13952L922.9771 125.96764L919.07086 125.96764L919.07086 124.29577ZM922.24274 140.35826L922.024 142.07701Q920.524 141.67076 919.68805 140.5692Q918.8521 139.46764 918.8521 137.74889Q918.8521 135.59264 920.18024 134.32701Q921.50836 133.06139 923.9146 133.06139Q926.399 133.06139 927.774 134.33482Q929.149 135.60826 929.149 137.65514Q929.149 139.63951 927.80524 140.88951Q926.4615 142.13951 924.00836 142.13951Q923.86774 142.13951 923.57086 142.12389L923.57086 134.78014Q921.94586 134.87389 921.0865 135.70201Q920.2271 136.53014 920.2271 137.76451Q920.2271 138.67076 920.7037 139.3192Q921.18024 139.96764 922.24274 140.35826ZM924.94586 134.87389L924.94586 140.37389Q926.18024 140.26451 926.80524 139.74889Q927.774 138.95201 927.774 137.67076Q927.774 136.53014 927.00055 135.74107Q926.2271 134.95201 924.94586 134.87389ZM919.07086 143.96764L928.93024 143.96764L928.93024 145.46764L927.43024 145.46764Q928.4771 146.04576 928.81305 146.53014Q929.149 147.01451 929.149 147.60826Q929.149 148.45201 928.6021 149.32701L927.05524 148.74889Q927.4146 148.13951 927.4146 147.51451Q927.4146 146.96764 927.0865 146.53795Q926.75836 146.10826 926.18024 145.92076Q925.2896 145.63951 924.2271 145.63951L919.07086 145.63951L919.07086 143.96764ZM919.07086 161.21764L919.07086 159.54576L929.7115 159.54576Q929.13336 158.95201 928.56305 157.96764Q927.99274 156.98326 927.69586 156.20201L929.32086 156.20201Q929.9771 157.60826 930.9146 158.65514Q931.8521 159.70201 932.7271 160.13951L932.7271 161.21764L919.07086 161.21764Z" />
    <path
       id="path95"
       stroke-linecap="butt"
       stroke-linejoin="round"
       stroke-width="2.0"
       stroke="#073763"
       fill="#d9ead3"
       fill-rule="nonzero"
       d="M899.3264 33.732037L899.3264 220.3777L856.2398 220.3777L856.2398 33.732037Z" />
    <path
       id="path97"
       fill="#000000"
       fill-rule="nonzero"
       d="M871.29517 93.060165L884.8889 89.45079L884.8889 91.29454L875.98267 93.35704Q874.5764 93.70079 873.2014 93.935165Q875.3733 94.45079 875.71704 94.54454L884.8889 97.13829L884.8889 99.310165L878.0139 101.26329Q875.4514 101.997665 873.2014 102.310165Q874.48267 102.57579 876.15454 102.997665L884.8889 105.122665L884.8889 106.935165L871.29517 103.20079L871.29517 101.466415L881.65454 98.60704Q882.9514 98.247665 883.2483 98.185165Q882.3108 97.966415 881.65454 97.778915L871.29517 94.88829L871.29517 93.060165ZM876.21704 107.45079Q878.9514 107.45079 880.27954 108.98204Q881.3733 110.247665 881.3733 112.07579Q881.3733 114.10704 880.03735 115.3961Q878.7014 116.685165 876.35767 116.685165Q874.4514 116.685165 873.3655 116.11485Q872.27954 115.54454 871.678 114.4586Q871.0764 113.372665 871.0764 112.07579Q871.0764 110.01329 872.40454 108.73204Q873.73267 107.45079 876.21704 107.45079ZM876.21704 109.16954Q874.3264 109.16954 873.3889 109.997665Q872.4514 110.82579 872.4514 112.07579Q872.4514 113.32579 873.3967 114.1461Q874.34204 114.966415 876.27954 114.966415Q878.10767 114.966415 879.04517 114.13829Q879.98267 113.310165 879.98267 112.07579Q879.98267 110.82579 879.04517 109.997665Q878.10767 109.16954 876.21704 109.16954ZM871.29517 118.435165L881.15454 118.435165L881.15454 119.935165L879.65454 119.935165Q880.7014 120.51329 881.03735 120.997665Q881.3733 121.48204 881.3733 122.07579Q881.3733 122.91954 880.8264 123.79454L879.27954 123.216415Q879.6389 122.60704 879.6389 121.98204Q879.6389 121.435165 879.3108 121.00548Q878.98267 120.57579 878.40454 120.38829Q877.5139 120.10704 876.4514 120.10704L871.29517 120.10704L871.29517 118.435165ZM871.29517 124.66954L884.8889 124.66954L884.8889 126.341415L877.1389 126.341415L881.15454 130.29454L881.15454 132.45079L877.4983 128.68517L871.29517 132.82579L871.29517 130.76329L876.3264 127.51329L875.2014 126.341415L871.29517 126.341415L871.29517 124.66954ZM874.46704 140.73204L874.2483 142.45079Q872.7483 142.04454 871.91235 140.94298Q871.0764 139.84142 871.0764 138.12267Q871.0764 135.96642 872.40454 134.70079Q873.73267 133.43517 876.1389 133.43517Q878.6233 133.43517 879.9983 134.7086Q881.3733 135.98204 881.3733 138.02892Q881.3733 140.01329 880.02954 141.26329Q878.6858 142.51329 876.23267 142.51329Q876.09204 142.51329 875.79517 142.49767L875.79517 135.15392Q874.17017 135.24767 873.3108 136.07579Q872.4514 136.90392 872.4514 138.13829Q872.4514 139.04454 872.928 139.69298Q873.40454 140.34142 874.46704 140.73204ZM877.17017 135.24767L877.17017 140.74767Q878.40454 140.63829 879.02954 140.12267Q879.9983 139.32579 879.9983 138.04454Q879.9983 136.90392 879.22485 136.11485Q878.4514 135.32579 877.17017 135.24767ZM871.29517 144.34142L881.15454 144.34142L881.15454 145.84142L879.65454 145.84142Q880.7014 146.41954 881.03735 146.90392Q881.3733 147.38829 881.3733 147.98204Q881.3733 148.82579 880.8264 149.70079L879.27954 149.12267Q879.6389 148.51329 879.6389 147.88829Q879.6389 147.34142 879.3108 146.91173Q878.98267 146.48204 878.40454 146.29454Q877.5139 146.01329 876.4514 146.01329L871.29517 146.01329L871.29517 144.34142ZM872.90454 164.07579L871.29517 164.07579L871.29517 155.09142Q871.90454 155.07579 872.4514 155.27892Q873.3733 155.62267 874.2639 156.38048Q875.15454 157.13829 876.3264 158.56017Q878.1389 160.77892 879.2014 161.56017Q880.2639 162.34142 881.21704 162.34142Q882.2014 162.34142 882.8889 161.63048Q883.5764 160.91954 883.5764 159.77892Q883.5764 158.57579 882.84985 157.84923Q882.1233 157.12267 880.84204 157.12267L881.0139 155.40392Q882.9358 155.57579 883.9436 156.73204Q884.9514 157.88829 884.9514 159.82579Q884.9514 161.77892 883.8655 162.91954Q882.77954 164.06017 881.17017 164.06017Q880.35767 164.06017 879.5686 163.72423Q878.77954 163.38829 877.91235 162.61485Q877.04517 161.84142 875.5139 160.04454Q874.2483 158.54454 873.803 158.11485Q873.35767 157.68517 872.90454 157.40392L872.90454 164.07579Z" />
    <path
       id="path99"
       stroke-linecap="butt"
       stroke-linejoin="round"
       stroke-width="2.0"
       stroke="#073763"
       fill="#fff2cc"
       fill-rule="nonzero"
       d="M851.02734 32.909615L851.02734 219.55528L807.94073 219.55528L807.94073 32.909615Z" />
    <path
       id="path101"
       fill="#000000"
       fill-rule="nonzero"
       d="M822.9961 92.23774L836.58984 88.628365L836.58984 90.472115L827.6836 92.534615Q826.27734 92.878365 824.90234 93.11274Q827.0742 93.628365 827.41797 93.722115L836.58984 96.315865L836.58984 98.48774L829.71484 100.440865Q827.15234 101.17524 824.90234 101.48774Q826.1836 101.753365 827.85547 102.17524L836.58984 104.30024L836.58984 106.11274L822.9961 102.378365L822.9961 100.64399L833.35547 97.784615Q834.65234 97.42524 834.9492 97.36274Q834.0117 97.14399 833.35547 96.95649L822.9961 94.065865L822.9961 92.23774ZM827.91797 106.628365Q830.65234 106.628365 831.98047 108.159615Q833.0742 109.42524 833.0742 111.253365Q833.0742 113.284615 831.7383 114.57368Q830.40234 115.86274 828.0586 115.86274Q826.15234 115.86274 825.0664 115.29243Q823.98047 114.722115 823.3789 113.63618Q822.77734 112.55024 822.77734 111.253365Q822.77734 109.190865 824.10547 107.909615Q825.4336 106.628365 827.91797 106.628365ZM827.91797 108.347115Q826.02734 108.347115 825.08984 109.17524Q824.15234 110.003365 824.15234 111.253365Q824.15234 112.503365 825.09766 113.32368Q826.04297 114.14399 827.98047 114.14399Q829.8086 114.14399 830.7461 113.315865Q831.6836 112.48774 831.6836 111.253365Q831.6836 110.003365 830.7461 109.17524Q829.8086 108.347115 827.91797 108.347115ZM822.9961 117.61274L832.85547 117.61274L832.85547 119.11274L831.35547 119.11274Q832.40234 119.690865 832.7383 120.17524Q833.0742 120.659615 833.0742 121.253365Q833.0742 122.097115 832.52734 122.972115L830.98047 122.39399Q831.33984 121.784615 831.33984 121.159615Q831.33984 120.61274 831.0117 120.18305Q830.6836 119.753365 830.10547 119.565865Q829.21484 119.284615 828.15234 119.284615L822.9961 119.284615L822.9961 117.61274ZM822.9961 123.847115L836.58984 123.847115L836.58984 125.51899L828.83984 125.51899L832.85547 129.4721L832.85547 131.62836L829.1992 127.86274L822.9961 132.00336L822.9961 129.94086L828.02734 126.690865L826.90234 125.51899L822.9961 125.51899L822.9961 123.847115ZM826.16797 139.9096L825.9492 141.62836Q824.4492 141.2221 823.6133 140.12054Q822.77734 139.01898 822.77734 137.30023Q822.77734 135.14398 824.10547 133.87836Q825.4336 132.61273 827.83984 132.61273Q830.3242 132.61273 831.6992 133.88617Q833.0742 135.1596 833.0742 137.20648Q833.0742 139.19086 831.73047 140.44086Q830.3867 141.69086 827.9336 141.69086Q827.79297 141.69086 827.4961 141.67523L827.4961 134.33148Q825.8711 134.42523 825.0117 135.25336Q824.15234 136.08148 824.15234 137.31586Q824.15234 138.2221 824.6289 138.87054Q825.10547 139.51898 826.16797 139.9096ZM828.8711 134.42523L828.8711 139.92523Q830.10547 139.81586 830.73047 139.30023Q831.6992 138.50336 831.6992 137.2221Q831.6992 136.08148 830.9258 135.29242Q830.15234 134.50336 828.8711 134.42523ZM822.9961 143.51898L832.85547 143.51898L832.85547 145.01898L831.35547 145.01898Q832.40234 145.5971 832.7383 146.08148Q833.0742 146.56586 833.0742 147.1596Q833.0742 148.00336 832.52734 148.87836L830.98047 148.30023Q831.33984 147.69086 831.33984 147.06586Q831.33984 146.51898 831.0117 146.0893Q830.6836 145.6596 830.10547 145.4721Q829.21484 145.19086 828.15234 145.19086L822.9961 145.19086L822.9961 143.51898ZM826.58984 154.48773L826.8086 156.1596Q825.3867 156.44086 824.7617 157.13617Q824.1367 157.83148 824.1367 158.81586Q824.1367 160.00336 824.95703 160.81586Q825.77734 161.62836 826.98047 161.62836Q828.1211 161.62836 828.8711 160.87054Q829.6211 160.11273 829.6211 158.95648Q829.6211 158.48773 829.4336 157.7846L830.90234 157.9721Q830.8867 158.12836 830.8867 158.23773Q830.8867 159.30023 831.4414 160.1518Q831.9961 161.00336 833.15234 161.00336Q834.0742 161.00336 834.6758 160.38617Q835.27734 159.76898 835.27734 158.7846Q835.27734 157.81586 834.66797 157.16742Q834.0586 156.51898 832.8242 156.33148L833.1211 154.6596Q834.8086 154.95648 835.73047 156.04242Q836.65234 157.12836 836.65234 158.75336Q836.65234 159.86273 836.1758 160.80023Q835.6992 161.73773 834.8711 162.22992Q834.04297 162.7221 833.1211 162.7221Q832.23047 162.7221 831.5117 162.25336Q830.79297 161.7846 830.35547 160.8471Q830.08984 162.06586 829.20703 162.72992Q828.3242 163.39398 827.0117 163.39398Q825.23047 163.39398 823.9961 162.0971Q822.7617 160.80023 822.7617 158.81586Q822.7617 157.01898 823.8242 155.8393Q824.8867 154.6596 826.58984 154.48773Z" />
    <path
       id="path103"
       stroke-linecap="butt"
       stroke-linejoin="round"
       stroke-width="2.0"
       stroke="#073763"
       fill="#d0e0e3"
       fill-rule="nonzero"
       d="M802.7283 33.208744L802.7283 219.85442L759.64166 219.85442L759.64166 33.208744Z" />
    <path
       id="path105"
       fill="#000000"
       fill-rule="nonzero"
       d="M774.697 92.536865L788.2908 88.92749L788.2908 90.77124L779.3845 92.83374Q777.9783 93.17749 776.6033 93.411865Q778.77515 93.92749 779.1189 94.02124L788.2908 96.61499L788.2908 98.786865L781.4158 100.73999Q778.8533 101.474365 776.6033 101.786865Q777.8845 102.05249 779.5564 102.474365L788.2908 104.599365L788.2908 106.411865L774.697 102.67749L774.697 100.943115L785.0564 98.08374Q786.3533 97.724365 786.65015 97.661865Q785.71265 97.443115 785.0564 97.255615L774.697 94.36499L774.697 92.536865ZM779.6189 106.92749Q782.3533 106.92749 783.6814 108.45874Q784.77515 109.724365 784.77515 111.55249Q784.77515 113.58374 783.4392 114.8728Q782.1033 116.161865 779.7595 116.161865Q777.8533 116.161865 776.76733 115.59155Q775.6814 115.02124 775.07983 113.9353Q774.4783 112.849365 774.4783 111.55249Q774.4783 109.48999 775.8064 108.20874Q777.1345 106.92749 779.6189 106.92749ZM779.6189 108.64624Q777.7283 108.64624 776.7908 109.474365Q775.8533 110.30249 775.8533 111.55249Q775.8533 112.80249 776.7986 113.6228Q777.7439 114.443115 779.6814 114.443115Q781.5095 114.443115 782.447 113.61499Q783.3845 112.786865 783.3845 111.55249Q783.3845 110.30249 782.447 109.474365Q781.5095 108.64624 779.6189 108.64624ZM774.697 117.911865L784.5564 117.911865L784.5564 119.411865L783.0564 119.411865Q784.1033 119.98999 784.4392 120.474365Q784.77515 120.95874 784.77515 121.55249Q784.77515 122.39624 784.2283 123.27124L782.6814 122.693115Q783.0408 122.08374 783.0408 121.45874Q783.0408 120.911865 782.71265 120.48218Q782.3845 120.05249 781.8064 119.86499Q780.9158 119.58374 779.8533 119.58374L774.697 119.58374L774.697 117.911865ZM774.697 124.14624L788.2908 124.14624L788.2908 125.818115L780.5408 125.818115L784.5564 129.77124L784.5564 131.92749L780.90015 128.16187L774.697 132.30249L774.697 130.23999L779.7283 126.98999L778.6033 125.818115L774.697 125.818115L774.697 124.14624ZM777.8689 140.20874L777.65015 141.92749Q776.15015 141.52124 775.3142 140.41968Q774.4783 139.31812 774.4783 137.59937Q774.4783 135.44312 775.8064 134.17749Q777.1345 132.91187 779.5408 132.91187Q782.02515 132.91187 783.40015 134.1853Q784.77515 135.45874 784.77515 137.50562Q784.77515 139.48999 783.4314 140.73999Q782.08765 141.98999 779.6345 141.98999Q779.4939 141.98999 779.197 141.97437L779.197 134.63062Q777.572 134.72437 776.71265 135.55249Q775.8533 136.38062 775.8533 137.61499Q775.8533 138.52124 776.32983 139.16968Q776.8064 139.81812 777.8689 140.20874ZM780.572 134.72437L780.572 140.22437Q781.8064 140.11499 782.4314 139.59937Q783.40015 138.80249 783.40015 137.52124Q783.40015 136.38062 782.6267 135.59155Q781.8533 134.80249 780.572 134.72437ZM774.697 143.81812L784.5564 143.81812L784.5564 145.31812L783.0564 145.31812Q784.1033 145.89624 784.4392 146.38062Q784.77515 146.86499 784.77515 147.45874Q784.77515 148.30249 784.2283 149.17749L782.6814 148.59937Q783.0408 147.98999 783.0408 147.36499Q783.0408 146.81812 782.71265 146.38843Q782.3845 145.95874 781.8064 145.77124Q780.9158 145.48999 779.8533 145.48999L774.697 145.48999L774.697 143.81812ZM774.697 160.13062L777.947 160.13062L777.947 154.22437L779.4783 154.22437L788.2908 160.44312L788.2908 161.80249L779.4783 161.80249L779.4783 163.64624L777.947 163.64624L777.947 161.80249L774.697 161.80249L774.697 160.13062ZM779.4783 160.13062L785.6189 160.13062L779.4783 155.88062L779.4783 160.13062Z" />
    <path
       id="path107"
       stroke-linecap="butt"
       stroke-linejoin="round"
       stroke-width="2.0"
       stroke="#073763"
       fill-rule="evenodd"
       d="M712.0748 128.8972L732.0748 128.8972" />
    <path
       id="path109"
       stroke-linecap="butt"
       stroke-width="2.0"
       stroke="#073763"
       fill="#073763"
       fill-rule="evenodd"
       d="M732.0748 132.20067L741.151 128.8972L732.0748 125.593735Z" />
    <path
       id="path219"
       stroke-linecap="butt"
       stroke-linejoin="round"
       stroke-width="2.0"
       stroke="#073763"
       fill-rule="evenodd"
       d="M526.94617 118.57643L526.94617 134.60793" />
    <path
       id="path221"
       stroke-linecap="butt"
       stroke-width="2.0"
       stroke="#073763"
       fill="#073763"
       fill-rule="evenodd"
       d="M523.6427 134.60793L526.94617 143.68413L530.24963 134.60793Z" />
    <path
       id="path223"
       stroke-linecap="butt"
       stroke-linejoin="round"
       stroke-width="2.0"
       stroke="#073763"
       fill-rule="evenodd"
       d="M526.2717 85.29042L526.2717 69.25893" />
    <path
       id="path225"
       stroke-linecap="butt"
       stroke-width="2.0"
       stroke="#073763"
       fill="#073763"
       fill-rule="evenodd"
       d="M529.5752 69.25893L526.2717 60.182728L522.96826 69.25893Z" />
  </g>
  <g
     id="g3264"
     style="filter:url(#filter3420)"
     inkscape:export-filename="/home/nopper/skippy/doc/imgs/block-part.png"
     inkscape:export-xdpi="90"
     inkscape:export-ydpi="90">
    <path
       id="path111"
       stroke-linecap="butt"
       stroke-linejoin="round"
       stroke-width="2.0"
       stroke="#073763"
       fill="#f4cccc"
       fill-rule="nonzero"
       d="M15.609376 255.86174L44.2078 255.86174L44.2078 284.46014L15.609376 284.46014Z" />
    <path
       id="path113"
       stroke-linecap="butt"
       stroke-linejoin="round"
       stroke-width="2.0"
       stroke="#073763"
       fill="#f4cccc"
       fill-rule="nonzero"
       d="M47.483017 255.86174L76.08144 255.86174L76.08144 284.46014L47.483017 284.46014Z" />
    <path
       id="path115"
       stroke-linecap="butt"
       stroke-linejoin="round"
       stroke-width="2.0"
       stroke="#073763"
       fill="#f4cccc"
       fill-rule="nonzero"
       d="M15.609376 287.73538L44.2078 287.73538L44.2078 316.3338L15.609376 316.3338Z" />
    <path
       id="path117"
       stroke-linecap="butt"
       stroke-linejoin="round"
       stroke-width="2.0"
       stroke="#073763"
       fill="#f4cccc"
       fill-rule="nonzero"
       d="M47.483017 287.73538L76.08144 287.73538L76.08144 316.3338L47.483017 316.3338Z" />
    <path
       id="path119"
       stroke-linecap="butt"
       stroke-linejoin="round"
       stroke-width="2.0"
       stroke="#073763"
       fill="#f4cccc"
       fill-rule="nonzero"
       d="M256.2243 260.9445L345.29517 260.9445L345.29517 348.59802L256.2243 348.59802Z" />
    <path
       id="path121"
       fill="#000000"
       fill-rule="nonzero"
       d="M274.5368 300.757L270.92743 287.16324L272.77118 287.16324L274.83368 296.0695Q275.17743 297.47574 275.4118 298.85074Q275.92743 296.67886 276.02118 296.3351L278.61493 287.16324L280.7868 287.16324L282.73993 294.03824Q283.4743 296.60074 283.7868 298.85074Q284.05243 297.5695 284.4743 295.8976L286.5993 287.16324L288.4118 287.16324L284.67743 300.757L282.94305 300.757L280.08368 290.3976Q279.7243 289.10074 279.6618 288.80386Q279.44305 289.74136 279.25555 290.3976L276.36493 300.757L274.5368 300.757ZM288.92743 295.8351Q288.92743 293.10074 290.45868 291.7726Q291.7243 290.67886 293.55243 290.67886Q295.58368 290.67886 296.87274 292.0148Q298.1618 293.35074 298.1618 295.6945Q298.1618 297.60074 297.5915 298.68668Q297.02118 299.7726 295.93524 300.37418Q294.8493 300.97574 293.55243 300.97574Q291.48993 300.97574 290.20868 299.6476Q288.92743 298.3195 288.92743 295.8351ZM290.64618 295.8351Q290.64618 297.72574 291.4743 298.66324Q292.30243 299.60074 293.55243 299.60074Q294.80243 299.60074 295.62274 298.65543Q296.44305 297.7101 296.44305 295.7726Q296.44305 293.9445 295.61493 293.007Q294.7868 292.0695 293.55243 292.0695Q292.30243 292.0695 291.4743 293.007Q290.64618 293.9445 290.64618 295.8351ZM299.9118 300.757L299.9118 290.8976L301.4118 290.8976L301.4118 292.3976Q301.98993 291.35074 302.4743 291.0148Q302.95868 290.67886 303.55243 290.67886Q304.39618 290.67886 305.27118 291.22574L304.69305 292.7726Q304.08368 292.41324 303.45868 292.41324Q302.9118 292.41324 302.48212 292.74136Q302.05243 293.0695 301.86493 293.6476Q301.58368 294.53824 301.58368 295.60074L301.58368 300.757L299.9118 300.757ZM306.1618 300.757L306.1618 287.16324L307.83368 287.16324L307.83368 294.91324L311.7868 290.8976L313.94305 290.8976L310.17743 294.55386L314.31805 300.757L312.25555 300.757L309.00555 295.72574L307.83368 296.85074L307.83368 300.757L306.1618 300.757ZM322.2243 297.5851L323.94305 297.80386Q323.5368 299.30386 322.43524 300.1398Q321.33368 300.97574 319.61493 300.97574Q317.45868 300.97574 316.19305 299.6476Q314.92743 298.3195 314.92743 295.91324Q314.92743 293.42886 316.20087 292.05386Q317.4743 290.67886 319.52118 290.67886Q321.50555 290.67886 322.75555 292.0226Q324.00555 293.36636 324.00555 295.8195Q324.00555 295.9601 323.98993 296.257L316.64618 296.257Q316.73993 297.882 317.56805 298.74136Q318.39618 299.60074 319.63055 299.60074Q320.5368 299.60074 321.18524 299.12418Q321.83368 298.6476 322.2243 297.5851ZM316.73993 294.882L322.23993 294.882Q322.13055 293.6476 321.61493 293.0226Q320.81805 292.05386 319.5368 292.05386Q318.39618 292.05386 317.60712 292.8273Q316.81805 293.60074 316.73993 294.882ZM325.83368 300.757L325.83368 290.8976L327.33368 290.8976L327.33368 292.3976Q327.9118 291.35074 328.39618 291.0148Q328.88055 290.67886 329.4743 290.67886Q330.31805 290.67886 331.19305 291.22574L330.61493 292.7726Q330.00555 292.41324 329.38055 292.41324Q328.83368 292.41324 328.404 292.74136Q327.9743 293.0695 327.7868 293.6476Q327.50555 294.53824 327.50555 295.60074L327.50555 300.757L325.83368 300.757Z" />
    <path
       id="path123"
       fill="#000000"
       fill-rule="nonzero"
       d="M302.64618 321.757L300.9743 321.757L300.9743 311.11636Q300.38055 311.6945 299.39618 312.2648Q298.4118 312.8351 297.63055 313.132L297.63055 311.507Q299.0368 310.85074 300.08368 309.91324Q301.13055 308.97574 301.56805 308.10074L302.64618 308.10074L302.64618 321.757Z" />
    <path
       id="path125"
       stroke-linecap="butt"
       stroke-linejoin="round"
       stroke-width="2.0"
       stroke="#073763"
       fill="#d9ead3"
       fill-rule="nonzero"
       d="M353.3458 260.04727L441.3143 260.04727L441.3143 347.48035L353.3458 347.48035Z" />
    <path
       id="path127"
       fill="#000000"
       fill-rule="nonzero"
       d="M371.11142 299.7504L367.50204 286.15665L369.3458 286.15665L371.4083 295.0629Q371.75204 296.46915 371.98642 297.84415Q372.50204 295.67227 372.5958 295.32852L375.18954 286.15665L377.36142 286.15665L379.31454 293.03165Q380.04892 295.59415 380.36142 297.84415Q380.62704 296.5629 381.04892 294.89102L383.17392 286.15665L384.98642 286.15665L381.25204 299.7504L379.51767 299.7504L376.6583 289.39102Q376.29892 288.09415 376.23642 287.79727Q376.01767 288.73477 375.83017 289.39102L372.93954 299.7504L371.11142 299.7504ZM385.50204 294.82852Q385.50204 292.09415 387.0333 290.76602Q388.29892 289.67227 390.12704 289.67227Q392.1583 289.67227 393.44736 291.0082Q394.73642 292.34415 394.73642 294.6879Q394.73642 296.59415 394.1661 297.68008Q393.5958 298.76602 392.50986 299.36758Q391.42392 299.96915 390.12704 299.96915Q388.06454 299.96915 386.7833 298.64102Q385.50204 297.3129 385.50204 294.82852ZM387.2208 294.82852Q387.2208 296.71915 388.04892 297.65665Q388.87704 298.59415 390.12704 298.59415Q391.37704 298.59415 392.19736 297.64883Q393.01767 296.70352 393.01767 294.76602Q393.01767 292.9379 392.18954 292.0004Q391.36142 291.0629 390.12704 291.0629Q388.87704 291.0629 388.04892 292.0004Q387.2208 292.9379 387.2208 294.82852ZM396.48642 299.7504L396.48642 289.89102L397.98642 289.89102L397.98642 291.39102Q398.56454 290.34415 399.04892 290.0082Q399.5333 289.67227 400.12704 289.67227Q400.9708 289.67227 401.8458 290.21915L401.26767 291.76602Q400.6583 291.40665 400.0333 291.40665Q399.48642 291.40665 399.05673 291.73477Q398.62704 292.0629 398.43954 292.64102Q398.1583 293.53165 398.1583 294.59415L398.1583 299.7504L396.48642 299.7504ZM402.7208 299.7504L402.7208 286.15665L404.39267 286.15665L404.39267 293.90665L408.3458 289.89102L410.50204 289.89102L406.73642 293.54727L410.87704 299.7504L408.81454 299.7504L405.56454 294.71915L404.39267 295.84415L404.39267 299.7504L402.7208 299.7504ZM418.7833 296.57852L420.50204 296.79727Q420.0958 298.29727 418.99423 299.1332Q417.89267 299.96915 416.17392 299.96915Q414.01767 299.96915 412.75204 298.64102Q411.48642 297.3129 411.48642 294.90665Q411.48642 292.42227 412.75986 291.04727Q414.0333 289.67227 416.08017 289.67227Q418.06454 289.67227 419.31454 291.01602Q420.56454 292.35977 420.56454 294.8129Q420.56454 294.95352 420.54892 295.2504L413.20517 295.2504Q413.29892 296.8754 414.12704 297.73477Q414.95517 298.59415 416.18954 298.59415Q417.0958 298.59415 417.74423 298.11758Q418.39267 297.64102 418.7833 296.57852ZM413.29892 293.8754L418.79892 293.8754Q418.68954 292.64102 418.17392 292.01602Q417.37704 291.04727 416.0958 291.04727Q414.95517 291.04727 414.1661 291.8207Q413.37704 292.59415 413.29892 293.8754ZM422.4083 299.7504L422.4083 289.89102L423.9083 289.89102L423.9083 291.39102Q424.48642 290.34415 424.9708 290.0082Q425.45517 289.67227 426.04892 289.67227Q426.89267 289.67227 427.76767 290.21915L427.18954 291.76602Q426.58017 291.40665 425.95517 291.40665Q425.4083 291.40665 424.9786 291.73477Q424.54892 292.0629 424.36142 292.64102Q424.08017 293.53165 424.08017 294.59415L424.08017 299.7504L422.4083 299.7504Z" />
    <path
       id="path129"
       fill="#000000"
       fill-rule="nonzero"
       d="M401.68954 319.14102L401.68954 320.7504L392.70517 320.7504Q392.68954 320.14102 392.89267 319.59415Q393.23642 318.67227 393.99423 317.78165Q394.75204 316.89102 396.17392 315.71915Q398.39267 313.90665 399.17392 312.84415Q399.95517 311.78165 399.95517 310.82852Q399.95517 309.84415 399.24423 309.15665Q398.5333 308.46915 397.39267 308.46915Q396.18954 308.46915 395.46298 309.1957Q394.73642 309.92227 394.73642 311.20352L393.01767 311.03165Q393.18954 309.10977 394.3458 308.10196Q395.50204 307.09415 397.43954 307.09415Q399.39267 307.09415 400.5333 308.18008Q401.67392 309.26602 401.67392 310.8754Q401.67392 311.6879 401.33798 312.47696Q401.00204 313.26602 400.2286 314.1332Q399.45517 315.0004 397.6583 316.53165Q396.1583 317.79727 395.7286 318.24258Q395.29892 318.6879 395.01767 319.14102L401.68954 319.14102Z" />
    <path
       id="path131"
       stroke-linecap="butt"
       stroke-linejoin="round"
       stroke-width="2.0"
       stroke="#073763"
       fill="#fff2cc"
       fill-rule="nonzero"
       d="M255.7757 355.89777L344.84656 355.89777L344.84656 443.64578L255.7757 443.64578Z" />
    <path
       id="path133"
       fill="#000000"
       fill-rule="nonzero"
       d="M274.0882 395.75714L270.47882 382.1634L272.32257 382.1634L274.38507 391.06964Q274.72882 392.4759 274.9632 393.8509Q275.47882 391.67902 275.57257 391.33527L278.16632 382.1634L280.3382 382.1634L282.29132 389.0384Q283.0257 391.6009 283.3382 393.8509Q283.60382 392.56964 284.0257 390.89777L286.1507 382.1634L287.9632 382.1634L284.22882 395.75714L282.49445 395.75714L279.63507 385.39777Q279.2757 384.1009 279.2132 383.80402Q278.99445 384.74152 278.80695 385.39777L275.91632 395.75714L274.0882 395.75714ZM288.47882 390.83527Q288.47882 388.1009 290.01007 386.77277Q291.2757 385.67902 293.10382 385.67902Q295.13507 385.67902 296.42413 387.01495Q297.7132 388.3509 297.7132 390.69464Q297.7132 392.6009 297.14288 393.68683Q296.57257 394.77277 295.48663 395.37433Q294.4007 395.9759 293.10382 395.9759Q291.04132 395.9759 289.76007 394.64777Q288.47882 393.31964 288.47882 390.83527ZM290.19757 390.83527Q290.19757 392.7259 291.0257 393.6634Q291.85382 394.6009 293.10382 394.6009Q294.35382 394.6009 295.17413 393.65558Q295.99445 392.71027 295.99445 390.77277Q295.99445 388.94464 295.16632 388.00714Q294.3382 387.06964 293.10382 387.06964Q291.85382 387.06964 291.0257 388.00714Q290.19757 388.94464 290.19757 390.83527ZM299.4632 395.75714L299.4632 385.89777L300.9632 385.89777L300.9632 387.39777Q301.54132 386.3509 302.0257 386.01495Q302.51007 385.67902 303.10382 385.67902Q303.94757 385.67902 304.82257 386.2259L304.24445 387.77277Q303.63507 387.4134 303.01007 387.4134Q302.4632 387.4134 302.0335 387.74152Q301.60382 388.06964 301.41632 388.64777Q301.13507 389.5384 301.13507 390.6009L301.13507 395.75714L299.4632 395.75714ZM305.7132 395.75714L305.7132 382.1634L307.38507 382.1634L307.38507 389.9134L311.3382 385.89777L313.49445 385.89777L309.72882 389.55402L313.86945 395.75714L311.80695 395.75714L308.55695 390.7259L307.38507 391.8509L307.38507 395.75714L305.7132 395.75714ZM321.7757 392.58527L323.49445 392.80402Q323.0882 394.30402 321.98663 395.13995Q320.88507 395.9759 319.16632 395.9759Q317.01007 395.9759 315.74445 394.64777Q314.47882 393.31964 314.47882 390.9134Q314.47882 388.42902 315.75226 387.05402Q317.0257 385.67902 319.07257 385.67902Q321.05695 385.67902 322.30695 387.02277Q323.55695 388.36652 323.55695 390.81964Q323.55695 390.96027 323.54132 391.25714L316.19757 391.25714Q316.29132 392.88214 317.11945 393.74152Q317.94757 394.6009 319.18195 394.6009Q320.0882 394.6009 320.73663 394.12433Q321.38507 393.64777 321.7757 392.58527ZM316.29132 389.88214L321.79132 389.88214Q321.68195 388.64777 321.16632 388.02277Q320.36945 387.05402 319.0882 387.05402Q317.94757 387.05402 317.1585 387.82745Q316.36945 388.6009 316.29132 389.88214ZM325.38507 395.75714L325.38507 385.89777L326.88507 385.89777L326.88507 387.39777Q327.4632 386.3509 327.94757 386.01495Q328.43195 385.67902 329.0257 385.67902Q329.86945 385.67902 330.74445 386.2259L330.16632 387.77277Q329.55695 387.4134 328.93195 387.4134Q328.38507 387.4134 327.95538 387.74152Q327.5257 388.06964 327.3382 388.64777Q327.05695 389.5384 327.05695 390.6009L327.05695 395.75714L325.38507 395.75714Z" />
    <path
       id="path135"
       fill="#000000"
       fill-rule="nonzero"
       d="M295.91632 413.1634L297.5882 412.94464Q297.86945 414.36652 298.56476 414.99152Q299.26007 415.61652 300.24445 415.61652Q301.43195 415.61652 302.24445 414.7962Q303.05695 413.9759 303.05695 412.77277Q303.05695 411.63214 302.29913 410.88214Q301.54132 410.13214 300.38507 410.13214Q299.91632 410.13214 299.2132 410.31964L299.4007 408.8509Q299.55695 408.86652 299.66632 408.86652Q300.72882 408.86652 301.58038 408.31183Q302.43195 407.75714 302.43195 406.6009Q302.43195 405.67902 301.81476 405.07745Q301.19757 404.4759 300.2132 404.4759Q299.24445 404.4759 298.596 405.08527Q297.94757 405.69464 297.76007 406.92902L296.0882 406.63214Q296.38507 404.94464 297.471 404.02277Q298.55695 403.1009 300.18195 403.1009Q301.29132 403.1009 302.22882 403.57745Q303.16632 404.05402 303.6585 404.88214Q304.1507 405.71027 304.1507 406.63214Q304.1507 407.52277 303.68195 408.24152Q303.2132 408.96027 302.2757 409.39777Q303.49445 409.6634 304.1585 410.5462Q304.82257 411.42902 304.82257 412.74152Q304.82257 414.52277 303.5257 415.75714Q302.22882 416.99152 300.24445 416.99152Q298.44757 416.99152 297.26788 415.92902Q296.0882 414.86652 295.91632 413.1634Z" />
    <path
       id="path137"
       stroke-linecap="butt"
       stroke-linejoin="round"
       stroke-width="2.0"
       stroke="#073763"
       fill="#d0e0e3"
       fill-rule="nonzero"
       d="M352.6729 356.57065L441.30283 356.57065L441.30283 444.88562L352.6729 444.88562Z" />
    <path
       id="path139"
       fill="#000000"
       fill-rule="nonzero"
       d="M370.76666 396.7269L367.1573 383.13315L369.00104 383.13315L371.06354 392.0394Q371.4073 393.44565 371.64166 394.82065Q372.1573 392.64877 372.25104 392.30502L374.8448 383.13315L377.01666 383.13315L378.9698 390.00815Q379.70416 392.57065 380.01666 394.82065Q380.2823 393.5394 380.70416 391.86752L382.82916 383.13315L384.64166 383.13315L380.9073 396.7269L379.1729 396.7269L376.31354 386.36752Q375.95416 385.07065 375.89166 384.77377Q375.6729 385.71127 375.4854 386.36752L372.5948 396.7269L370.76666 396.7269ZM385.1573 391.80502Q385.1573 389.07065 386.68854 387.74252Q387.95416 386.64877 389.7823 386.64877Q391.81354 386.64877 393.1026 387.9847Q394.39166 389.32065 394.39166 391.6644Q394.39166 393.57065 393.82135 394.6566Q393.25104 395.74252 392.1651 396.3441Q391.07916 396.94565 389.7823 396.94565Q387.7198 396.94565 386.43854 395.61752Q385.1573 394.2894 385.1573 391.80502ZM386.87604 391.80502Q386.87604 393.69565 387.70416 394.63315Q388.5323 395.57065 389.7823 395.57065Q391.0323 395.57065 391.8526 394.62534Q392.6729 393.68002 392.6729 391.74252Q392.6729 389.9144 391.8448 388.9769Q391.01666 388.0394 389.7823 388.0394Q388.5323 388.0394 387.70416 388.9769Q386.87604 389.9144 386.87604 391.80502ZM396.14166 396.7269L396.14166 386.86752L397.64166 386.86752L397.64166 388.36752Q398.2198 387.32065 398.70416 386.9847Q399.18854 386.64877 399.7823 386.64877Q400.62604 386.64877 401.50104 387.19565L400.9229 388.74252Q400.31354 388.38315 399.68854 388.38315Q399.14166 388.38315 398.71198 388.71127Q398.2823 389.0394 398.0948 389.61752Q397.81354 390.50815 397.81354 391.57065L397.81354 396.7269L396.14166 396.7269ZM402.39166 396.7269L402.39166 383.13315L404.06354 383.13315L404.06354 390.88315L408.01666 386.86752L410.1729 386.86752L406.4073 390.52377L410.5479 396.7269L408.4854 396.7269L405.2354 391.69565L404.06354 392.82065L404.06354 396.7269L402.39166 396.7269ZM418.45416 393.55502L420.1729 393.77377Q419.76666 395.27377 418.6651 396.1097Q417.56354 396.94565 415.8448 396.94565Q413.68854 396.94565 412.4229 395.61752Q411.1573 394.2894 411.1573 391.88315Q411.1573 389.39877 412.43073 388.02377Q413.70416 386.64877 415.75104 386.64877Q417.7354 386.64877 418.9854 387.99252Q420.2354 389.33627 420.2354 391.7894Q420.2354 391.93002 420.2198 392.2269L412.87604 392.2269Q412.9698 393.8519 413.7979 394.71127Q414.62604 395.57065 415.8604 395.57065Q416.76666 395.57065 417.4151 395.0941Q418.06354 394.61752 418.45416 393.55502ZM412.9698 390.8519L418.4698 390.8519Q418.3604 389.61752 417.8448 388.99252Q417.0479 388.02377 415.76666 388.02377Q414.62604 388.02377 413.83698 388.7972Q413.0479 389.57065 412.9698 390.8519ZM422.06354 396.7269L422.06354 386.86752L423.56354 386.86752L423.56354 388.36752Q424.14166 387.32065 424.62604 386.9847Q425.1104 386.64877 425.70416 386.64877Q426.5479 386.64877 427.4229 387.19565L426.8448 388.74252Q426.2354 388.38315 425.6104 388.38315Q425.06354 388.38315 424.63385 388.71127Q424.20416 389.0394 424.01666 389.61752Q423.7354 390.50815 423.7354 391.57065L423.7354 396.7269L422.06354 396.7269Z" />
    <path
       id="path141"
       fill="#000000"
       fill-rule="nonzero"
       d="M397.93854 417.7269L397.93854 414.4769L392.0323 414.4769L392.0323 412.94565L398.25104 404.13315L399.6104 404.13315L399.6104 412.94565L401.45416 412.94565L401.45416 414.4769L399.6104 414.4769L399.6104 417.7269L397.93854 417.7269ZM397.93854 412.94565L397.93854 406.80502L393.68854 412.94565L397.93854 412.94565Z" />
    <path
       id="path143"
       stroke-linecap="butt"
       stroke-linejoin="round"
       stroke-width="2.0"
       stroke="#073763"
       fill-rule="evenodd"
       d="M212.03973 352.46646L232.03973 352.46646" />
    <path
       id="path145"
       stroke-linecap="butt"
       stroke-width="2.0"
       stroke="#073763"
       fill="#073763"
       fill-rule="evenodd"
       d="M232.03973 355.76993L241.11594 352.46646L232.03973 349.163Z" />
    <path
       id="path147"
       stroke-linecap="butt"
       stroke-linejoin="round"
       stroke-width="2.0"
       stroke="#073763"
       fill="#f4cccc"
       fill-rule="nonzero"
       d="M79.704185 255.86174L108.30261 255.86174L108.30261 284.46014L79.704185 284.46014Z" />
    <path
       id="path149"
       stroke-linecap="butt"
       stroke-linejoin="round"
       stroke-width="2.0"
       stroke="#073763"
       fill="#f4cccc"
       fill-rule="nonzero"
       d="M79.704185 287.73538L108.30261 287.73538L108.30261 316.3338L79.704185 316.3338Z" />
    <path
       id="path151"
       stroke-linecap="butt"
       stroke-linejoin="round"
       stroke-width="2.0"
       stroke="#073763"
       fill="#f4cccc"
       fill-rule="nonzero"
       d="M15.956909 319.9555L44.555336 319.9555L44.555336 348.55392L15.956909 348.55392Z" />
    <path
       id="path153"
       stroke-linecap="butt"
       stroke-linejoin="round"
       stroke-width="2.0"
       stroke="#073763"
       fill="#f4cccc"
       fill-rule="nonzero"
       d="M47.483017 319.9555L76.08144 319.9555L76.08144 348.55392L47.483017 348.55392Z" />
    <path
       id="path155"
       stroke-linecap="butt"
       stroke-linejoin="round"
       stroke-width="2.0"
       stroke="#073763"
       fill="#f4cccc"
       fill-rule="nonzero"
       d="M79.704185 319.9555L108.30261 319.9555L108.30261 348.55392L79.704185 348.55392Z" />
    <path
       id="path157"
       stroke-linecap="butt"
       stroke-linejoin="round"
       stroke-width="2.0"
       stroke="#073763"
       fill="#d9ead3"
       fill-rule="nonzero"
       d="M111.57783 255.68849L140.17625 255.68849L140.17625 284.2869L111.57783 284.2869Z" />
    <path
       id="path159"
       stroke-linecap="butt"
       stroke-linejoin="round"
       stroke-width="2.0"
       stroke="#073763"
       fill="#d9ead3"
       fill-rule="nonzero"
       d="M143.45146 255.68849L172.0499 255.68849L172.0499 284.2869L143.45146 284.2869Z" />
    <path
       id="path161"
       stroke-linecap="butt"
       stroke-linejoin="round"
       stroke-width="2.0"
       stroke="#073763"
       fill="#d9ead3"
       fill-rule="nonzero"
       d="M111.57783 287.56213L140.17625 287.56213L140.17625 316.16055L111.57783 316.16055Z" />
    <path
       id="path163"
       stroke-linecap="butt"
       stroke-linejoin="round"
       stroke-width="2.0"
       stroke="#073763"
       fill="#d9ead3"
       fill-rule="nonzero"
       d="M143.45146 287.56213L172.0499 287.56213L172.0499 316.16055L143.45146 316.16055Z" />
    <path
       id="path165"
       stroke-linecap="butt"
       stroke-linejoin="round"
       stroke-width="2.0"
       stroke="#073763"
       fill="#d9ead3"
       fill-rule="nonzero"
       d="M175.67264 255.68849L204.27106 255.68849L204.27106 284.2869L175.67264 284.2869Z" />
    <path
       id="path167"
       stroke-linecap="butt"
       stroke-linejoin="round"
       stroke-width="2.0"
       stroke="#073763"
       fill="#d9ead3"
       fill-rule="nonzero"
       d="M175.67264 287.56213L204.27106 287.56213L204.27106 316.16055L175.67264 316.16055Z" />
    <path
       id="path169"
       stroke-linecap="butt"
       stroke-linejoin="round"
       stroke-width="2.0"
       stroke="#073763"
       fill="#d9ead3"
       fill-rule="nonzero"
       d="M111.925354 319.78226L140.52377 319.78226L140.52377 348.38068L111.925354 348.38068Z" />
    <path
       id="path171"
       stroke-linecap="butt"
       stroke-linejoin="round"
       stroke-width="2.0"
       stroke="#073763"
       fill="#d9ead3"
       fill-rule="nonzero"
       d="M143.45146 319.78226L172.0499 319.78226L172.0499 348.38068L143.45146 348.38068Z" />
    <path
       id="path173"
       stroke-linecap="butt"
       stroke-linejoin="round"
       stroke-width="2.0"
       stroke="#073763"
       fill="#d9ead3"
       fill-rule="nonzero"
       d="M175.67264 319.78226L204.27106 319.78226L204.27106 348.38068L175.67264 348.38068Z" />
    <path
       id="path175"
       stroke-linecap="butt"
       stroke-linejoin="round"
       stroke-width="2.0"
       stroke="#073763"
       fill="#fff2cc"
       fill-rule="nonzero"
       d="M15.609376 351.6446L44.2078 351.6446L44.2078 380.24304L15.609376 380.24304Z" />
    <path
       id="path177"
       stroke-linecap="butt"
       stroke-linejoin="round"
       stroke-width="2.0"
       stroke="#073763"
       fill="#fff2cc"
       fill-rule="nonzero"
       d="M47.483017 351.6446L76.08144 351.6446L76.08144 380.24304L47.483017 380.24304Z" />
    <path
       id="path179"
       stroke-linecap="butt"
       stroke-linejoin="round"
       stroke-width="2.0"
       stroke="#073763"
       fill="#fff2cc"
       fill-rule="nonzero"
       d="M15.609376 383.51825L44.2078 383.51825L44.2078 412.11667L15.609376 412.11667Z" />
    <path
       id="path181"
       stroke-linecap="butt"
       stroke-linejoin="round"
       stroke-width="2.0"
       stroke="#073763"
       fill="#fff2cc"
       fill-rule="nonzero"
       d="M47.483017 383.51825L76.08144 383.51825L76.08144 412.11667L47.483017 412.11667Z" />
    <path
       id="path183"
       stroke-linecap="butt"
       stroke-linejoin="round"
       stroke-width="2.0"
       stroke="#073763"
       fill="#fff2cc"
       fill-rule="nonzero"
       d="M79.704185 351.6446L108.30261 351.6446L108.30261 380.24304L79.704185 380.24304Z" />
    <path
       id="path185"
       stroke-linecap="butt"
       stroke-linejoin="round"
       stroke-width="2.0"
       stroke="#073763"
       fill="#fff2cc"
       fill-rule="nonzero"
       d="M79.704185 383.51825L108.30261 383.51825L108.30261 412.11667L79.704185 412.11667Z" />
    <path
       id="path187"
       stroke-linecap="butt"
       stroke-linejoin="round"
       stroke-width="2.0"
       stroke="#073763"
       fill="#fff2cc"
       fill-rule="nonzero"
       d="M15.956909 415.7384L44.555336 415.7384L44.555336 444.33682L15.956909 444.33682Z" />
    <path
       id="path189"
       stroke-linecap="butt"
       stroke-linejoin="round"
       stroke-width="2.0"
       stroke="#073763"
       fill="#fff2cc"
       fill-rule="nonzero"
       d="M47.483017 415.7384L76.08144 415.7384L76.08144 444.33682L47.483017 444.33682Z" />
    <path
       id="path191"
       stroke-linecap="butt"
       stroke-linejoin="round"
       stroke-width="2.0"
       stroke="#073763"
       fill="#fff2cc"
       fill-rule="nonzero"
       d="M79.704185 415.7384L108.30261 415.7384L108.30261 444.33682L79.704185 444.33682Z" />
    <path
       id="path193"
       stroke-linecap="butt"
       stroke-linejoin="round"
       stroke-width="2.0"
       stroke="#073763"
       fill="#d0e0e3"
       fill-rule="nonzero"
       d="M111.57783 351.47137L140.17625 351.47137L140.17625 380.0698L111.57783 380.0698Z" />
    <path
       id="path195"
       stroke-linecap="butt"
       stroke-linejoin="round"
       stroke-width="2.0"
       stroke="#073763"
       fill="#d0e0e3"
       fill-rule="nonzero"
       d="M143.45146 351.47137L172.0499 351.47137L172.0499 380.0698L143.45146 380.0698Z" />
    <path
       id="path197"
       stroke-linecap="butt"
       stroke-linejoin="round"
       stroke-width="2.0"
       stroke="#073763"
       fill="#d0e0e3"
       fill-rule="nonzero"
       d="M111.57783 383.34503L140.17625 383.34503L140.17625 411.94345L111.57783 411.94345Z" />
    <path
       id="path199"
       stroke-linecap="butt"
       stroke-linejoin="round"
       stroke-width="2.0"
       stroke="#073763"
       fill="#d0e0e3"
       fill-rule="nonzero"
       d="M143.45146 383.34503L172.0499 383.34503L172.0499 411.94345L143.45146 411.94345Z" />
    <path
       id="path201"
       stroke-linecap="butt"
       stroke-linejoin="round"
       stroke-width="2.0"
       stroke="#073763"
       fill="#d0e0e3"
       fill-rule="nonzero"
       d="M175.67264 351.47137L204.27106 351.47137L204.27106 380.0698L175.67264 380.0698Z" />
    <path
       id="path203"
       stroke-linecap="butt"
       stroke-linejoin="round"
       stroke-width="2.0"
       stroke="#073763"
       fill="#d0e0e3"
       fill-rule="nonzero"
       d="M175.67264 383.34503L204.27106 383.34503L204.27106 411.94345L175.67264 411.94345Z" />
    <path
       id="path205"
       stroke-linecap="butt"
       stroke-linejoin="round"
       stroke-width="2.0"
       stroke="#073763"
       fill="#d0e0e3"
       fill-rule="nonzero"
       d="M111.925354 415.56512L140.52377 415.56512L140.52377 444.16354L111.925354 444.16354Z" />
    <path
       id="path207"
       stroke-linecap="butt"
       stroke-linejoin="round"
       stroke-width="2.0"
       stroke="#073763"
       fill="#d0e0e3"
       fill-rule="nonzero"
       d="M143.45146 415.56512L172.0499 415.56512L172.0499 444.16354L143.45146 444.16354Z" />
    <path
       id="path209"
       stroke-linecap="butt"
       stroke-linejoin="round"
       stroke-width="2.0"
       stroke="#073763"
       fill="#d0e0e3"
       fill-rule="nonzero"
       d="M175.67264 415.56512L204.27106 415.56512L204.27106 444.16354L175.67264 444.16354Z" />
    <path
       id="path235"
       stroke-linecap="butt"
       stroke-linejoin="round"
       stroke-width="2.0"
       stroke="#073763"
       fill-rule="evenodd"
       d="M73.224525 301.36008L80.500114 301.36008" />
    <path
       id="path237"
       stroke-linecap="butt"
       stroke-width="2.0"
       stroke="#073763"
       fill="#073763"
       fill-rule="evenodd"
       d="M80.500114 304.66354L89.57631 301.36008L80.500114 298.0566Z" />
    <path
       id="path239"
       stroke-linecap="butt"
       stroke-linejoin="round"
       stroke-width="2.0"
       stroke="#073763"
       fill-rule="evenodd"
       d="M50.33993 302.7091L43.06434 302.7091" />
    <path
       id="path241"
       stroke-linecap="butt"
       stroke-width="2.0"
       stroke="#073763"
       fill="#073763"
       fill-rule="evenodd"
       d="M43.064342 299.40564L33.988148 302.7091L43.064342 306.01254Z" />
    <path
       id="path243"
       stroke-linecap="butt"
       stroke-linejoin="round"
       stroke-width="2.0"
       stroke="#073763"
       fill-rule="evenodd"
       d="M62.456738 312.80237L62.456738 320.07797" />
    <path
       id="path245"
       stroke-linecap="butt"
       stroke-width="2.0"
       stroke="#073763"
       fill="#073763"
       fill-rule="evenodd"
       d="M59.153275 320.07797L62.456738 329.15414L65.7602 320.07797Z" />
    <path
       id="path247"
       stroke-linecap="butt"
       stroke-linejoin="round"
       stroke-width="2.0"
       stroke="#073763"
       fill-rule="evenodd"
       d="M61.107716 289.9178L61.107716 282.64218" />
    <path
       id="path249"
       stroke-linecap="butt"
       stroke-width="2.0"
       stroke="#073763"
       fill="#073763"
       fill-rule="evenodd"
       d="M64.41118 282.64218L61.107716 273.56598L57.80425 282.64218Z" />
  </g>
</svg>
